<?xml version="1.0" ?>
<!DOCTYPE svg PUBLIC '-//W3C//DTD SVG 1.1//EN' 'http://www.w3.org/Graphics/SVG/1.1/DTD/svg11.dtd'><svg height="26px"
    id="Facebook" style="enable-background:new 0 0 512 512;" version="1.1" viewBox="0 0 512 512" width="26px"
    xml:space="preserve" xmlns="http://www.w3.org/2000/svg" xmlns:xlink="http://www.w3.org/1999/xlink">
    <circle cx="256" cy="256" r="210" style="fill:white;" />
    <path
        d="M256,46.531c-115.982,0-210,93.784-210,209.466  c0,115.689,94.018,209.472,210,209.472c115.975,0,210-93.783,210-209.472C466,140.315,371.975,46.531,256,46.531z M311.307,208.822  l-3.004,37.589h-40.066v130.597h-50.608V246.411h-27.01v-37.589h27.01v-25.263c0-11.114,0.293-28.297,8.697-38.937  c8.855-11.25,21.016-18.9,41.912-18.9c34.057,0,48.417,4.661,48.417,4.661l-6.755,38.5c0,0-11.249-3.132-21.754-3.132  c-10.504,0-19.908,3.607-19.908,13.719v29.352H311.307z"
        style="fill-rule:evenodd;clip-rule:evenodd;fill:#ce331eed" />
</svg>
